# Blender 3.3.1
# www.blender.org
mtllib pyramid.mtl
o Cone
v 0.000000 -0.600000 -0.600000
v -0.000000 0.600000 0.000000
v 0.600000 -0.600000 -0.000000
v 0.000000 -0.600000 0.600000
v -0.600000 -0.600000 -0.000000
vn 0.6667 0.3333 -0.6667
vn 0.6667 0.3333 0.6667
vn -0.0000 -1.0000 -0.0000
vn -0.6667 0.3333 0.6667
vn -0.6667 0.3333 -0.6667
vt 0.750000 0.490000
vt 0.250000 0.490000
vt 0.250000 0.250000
vt 0.490000 0.250000
vt 0.990000 0.250000
vt 0.250000 0.010000
vt 0.750000 0.010000
vt 0.010000 0.250000
vt 0.510000 0.250000
s 1
usemtl None
f 1/2/1 2/3/1 3/4/1
f 3/4/2 2/3/2 4/6/2
f 3/5/3 5/9/3 1/1/3
f 4/6/4 2/3/4 5/8/4
f 5/8/5 2/3/5 1/2/5
f 3/5/3 4/7/3 5/9/3
